<svg width="1040" height="56" viewBox="0 0 1040 56" fill="none" xmlns="http://www.w3.org/2000/svg">
<path d="M63.3934 41.1693L52.5422 55.1085H0V0.89146H63.2302L52.2975 14.9928H16.9702V21.4761H60.2115L50.5026 33.7945H16.9702V41.1693H63.3934Z" fill="white"/>
<path d="M146.666 0.89146L129.451 16.5326C127.547 18.2615 125.943 19.7202 124.637 20.9088C123.332 22.0434 122.217 23.0159 121.292 23.8263C120.368 24.5827 119.579 25.2311 118.926 25.7713C118.328 26.2576 117.784 26.6898 117.295 27.068C117.784 27.3922 118.328 27.7974 118.926 28.2836C119.525 28.7699 120.313 29.4723 121.292 30.3907C122.271 31.2552 123.495 32.3628 124.964 33.7135C126.432 35.0642 128.282 36.766 130.512 38.8191L147.971 55.1085H124.148L105.546 37.1983L86.3729 55.1085H65.405L83.191 38.8191C85.2579 36.9281 86.9984 35.3613 88.4126 34.1187C89.8268 32.822 90.9962 31.7685 91.9209 30.958C92.8455 30.1476 93.607 29.4993 94.2053 29.013C94.858 28.5268 95.4291 28.0945 95.9187 27.7164C95.4291 27.3382 94.8852 26.9329 94.2869 26.5007C93.6886 26.0145 92.9271 25.3661 92.0025 24.5557C91.0778 23.6913 89.9084 22.6377 88.4942 21.3951C87.08 20.0984 85.3123 18.4506 83.191 16.4515L66.4656 0.89146H89.8812L107.259 17.7482L124.801 0.89146H146.666Z" fill="white"/>
<path d="M218.305 0.89146L207.373 14.9928H187.873V55.1085H170.985V14.9928H145.366L156.299 0.89146H218.305Z" fill="white"/>
<path d="M295.338 55.1085H272.738L260.582 40.7641H234.637V55.1085H217.748V27.3922H265.232C267.843 27.3922 270.046 26.8519 271.841 25.7713C273.636 24.6908 274.533 23.205 274.533 21.314C274.533 19.2069 273.717 17.6401 272.085 16.6136C270.454 15.533 268.169 14.9928 265.232 14.9928H217.748L228.763 0.89146H263.845C266.945 0.89146 270.155 1.18861 273.472 1.78292C276.79 2.3232 279.809 3.32272 282.529 4.78147C285.248 6.24023 287.478 8.21225 289.219 10.6975C291.014 13.1828 291.911 16.3705 291.911 20.2605C291.911 22.3676 291.585 24.3666 290.932 26.2576C290.279 28.1486 289.328 29.8505 288.077 31.3632C286.88 32.876 285.384 34.1727 283.589 35.2533C281.849 36.2798 279.863 37.0092 277.633 37.4414C278.558 38.1438 279.591 39.0352 280.734 40.1158C281.876 41.1963 283.399 42.6821 285.303 44.5731L295.338 55.1085Z" fill="white"/>
<path d="M364.804 41.1693L353.953 55.1085H301.411V0.89146H364.641L353.708 14.9928H318.381V21.4761H361.622L351.914 33.7945H318.381V41.1693H364.804Z" fill="white"/>
<path d="M408.262 21.0709C409.459 23.178 410.492 25.042 411.363 26.6628C412.287 28.2296 413.076 29.6343 413.729 30.877C414.436 32.1196 415.034 33.2542 415.524 34.2808C416.068 35.3073 416.584 36.3068 417.074 37.2793C417.509 36.3068 417.971 35.3343 418.461 34.3618C419.005 33.3353 419.603 32.2007 420.256 30.958C420.963 29.6614 421.751 28.2296 422.622 26.6628C423.546 25.096 424.607 23.259 425.804 21.152L434.533 5.75398C435.513 4.02508 436.736 2.64737 438.205 1.62084C439.728 0.540279 441.604 0 443.834 0C445.956 0 447.859 0.621322 449.546 1.86397C451.286 3.05258 452.537 4.91654 453.299 7.45586L467.087 55.1085H450.28L445.14 36.2258C444.27 33.1462 443.535 30.4448 442.937 28.1216C442.339 25.7984 441.822 23.5292 441.387 21.314C440.462 23.205 439.429 25.3121 438.286 27.6353C437.144 29.9045 435.648 32.795 433.799 36.3068L426.456 49.9219C425.749 51.2726 425.015 52.3531 424.253 53.1635C423.546 53.9199 422.812 54.5142 422.051 54.9465C421.289 55.3787 420.473 55.6488 419.603 55.7569C418.733 55.919 417.781 56 416.747 56C415.714 56 414.762 55.919 413.892 55.7569C413.022 55.6488 412.206 55.3787 411.444 54.9465C410.683 54.5142 409.921 53.9199 409.16 53.1635C408.453 52.3531 407.746 51.2726 407.039 49.9219L399.696 36.2258C398.717 34.3888 397.846 32.741 397.085 31.2822C396.323 29.8234 395.616 28.5268 394.964 27.3922C394.365 26.2036 393.821 25.123 393.332 24.1505C392.897 23.178 392.462 22.2325 392.026 21.314C391.591 23.4752 391.075 25.7443 390.476 28.1216C389.878 30.4448 389.171 33.1462 388.355 36.2258L383.215 55.1085H366.653L380.767 7.45586C381.529 4.91654 382.78 3.05258 384.52 1.86397C386.261 0.621322 388.192 0 390.313 0C392.489 0 394.311 0.513266 395.779 1.5398C397.302 2.56633 398.553 3.97106 399.532 5.75398L408.262 21.0709Z" fill="white"/>
<path d="M536.664 41.1693L525.812 55.1085H473.27V0.89146H536.5L525.568 14.9928H490.24V21.4761H533.482L523.773 33.7945H490.24V41.1693H536.664Z" fill="white"/>
<path d="M611.354 21.0709C612.551 23.178 613.584 25.042 614.455 26.6628C615.379 28.2296 616.168 29.6343 616.821 30.877C617.528 32.1196 618.126 33.2542 618.616 34.2808C619.159 35.3073 619.676 36.3068 620.166 37.2793C620.601 36.3068 621.063 35.3343 621.553 34.3618C622.097 33.3353 622.695 32.2007 623.348 30.958C624.055 29.6614 624.843 28.2296 625.714 26.6628C626.638 25.096 627.699 23.259 628.896 21.152L637.625 5.75398C638.604 4.02508 639.828 2.64737 641.297 1.62084C642.82 0.540279 644.696 0 646.926 0C649.048 0 650.951 0.621322 652.637 1.86397C654.378 3.05258 655.629 4.91654 656.39 7.45586L670.179 55.1085H653.372L648.232 36.2258C647.361 33.1462 646.627 30.4448 646.029 28.1216C645.431 25.7984 644.914 23.5292 644.479 21.314C643.554 23.205 642.521 25.3121 641.378 27.6353C640.236 29.9045 638.74 32.795 636.891 36.3068L629.548 49.9219C628.841 51.2726 628.107 52.3531 627.345 53.1635C626.638 53.9199 625.904 54.5142 625.142 54.9465C624.381 55.3787 623.565 55.6488 622.695 55.7569C621.825 55.919 620.873 56 619.839 56C618.806 56 617.854 55.919 616.984 55.7569C616.114 55.6488 615.298 55.3787 614.536 54.9465C613.775 54.5142 613.013 53.9199 612.252 53.1635C611.545 52.3531 610.838 51.2726 610.13 49.9219L602.788 36.2258C601.809 34.3888 600.938 32.741 600.177 31.2822C599.415 29.8234 598.708 28.5268 598.055 27.3922C597.457 26.2036 596.913 25.123 596.424 24.1505C595.989 23.178 595.553 22.2325 595.118 21.314C594.683 23.4752 594.167 25.7443 593.568 28.1216C592.97 30.4448 592.263 33.1462 591.447 36.2258L586.307 55.1085H569.745L583.859 7.45586C584.621 4.91654 585.872 3.05258 587.612 1.86397C589.353 0.621322 591.284 0 593.405 0C595.581 0 597.403 0.513266 598.871 1.5398C600.394 2.56633 601.645 3.97106 602.624 5.75398L611.354 21.0709Z" fill="white"/>
<path d="M693.495 55.1085H676.607V0.89146H693.495V55.1085Z" fill="white"/>
<path d="M754.594 22.5297C761.284 22.5297 766.369 23.7723 769.85 26.2576C773.331 28.6889 775.072 32.3898 775.072 37.3603C775.072 40.1158 774.637 42.6011 773.767 44.8162C772.896 47.0314 771.509 48.8953 769.606 50.4081C767.702 51.9209 765.254 53.0825 762.263 53.8929C759.326 54.7033 755.79 55.1085 751.656 55.1085H700.827L711.679 41.1693H752.962C754.974 41.1693 756.443 40.8722 757.368 40.2779C758.292 39.6295 758.755 38.603 758.755 37.1983C758.755 35.7935 758.292 34.794 757.368 34.1997C756.443 33.6054 754.974 33.3082 752.962 33.3082H723.264C719.729 33.3082 716.683 32.9301 714.126 32.1737C711.57 31.4173 709.449 30.3637 707.762 29.013C706.076 27.6623 704.825 26.0415 704.009 24.1505C703.194 22.2055 702.786 20.0714 702.786 17.7482C702.786 15.2089 703.221 12.9127 704.091 10.8596C705.016 8.75253 706.403 6.96961 708.252 5.51085C710.156 4.05209 712.576 2.91751 715.513 2.10709C718.505 1.29667 722.067 0.89146 726.201 0.89146H773.603L762.752 14.9928H724.896C722.938 14.9928 721.469 15.2629 720.49 15.8032C719.565 16.3435 719.103 17.316 719.103 18.7207C719.103 20.1254 719.565 21.1249 720.49 21.7192C721.469 22.2595 722.938 22.5297 724.896 22.5297H754.594Z" fill="white"/>
<path d="M833.153 22.5297C839.843 22.5297 844.929 23.7723 848.41 26.2576C851.891 28.6889 853.632 32.3898 853.632 37.3603C853.632 40.1158 853.197 42.6011 852.326 44.8162C851.456 47.0314 850.069 48.8953 848.165 50.4081C846.262 51.9209 843.814 53.0825 840.822 53.8929C837.885 54.7033 834.35 55.1085 830.216 55.1085H779.387L790.238 41.1693H831.521C833.534 41.1693 835.003 40.8722 835.927 40.2779C836.852 39.6295 837.314 38.603 837.314 37.1983C837.314 35.7935 836.852 34.794 835.927 34.1997C835.003 33.6054 833.534 33.3082 831.521 33.3082H801.824C798.288 33.3082 795.242 32.9301 792.686 32.1737C790.129 31.4173 788.008 30.3637 786.322 29.013C784.636 27.6623 783.385 26.0415 782.569 24.1505C781.753 22.2055 781.345 20.0714 781.345 17.7482C781.345 15.2089 781.78 12.9127 782.651 10.8596C783.575 8.75253 784.962 6.96961 786.812 5.51085C788.715 4.05209 791.136 2.91751 794.073 2.10709C797.064 1.29667 800.627 0.89146 804.761 0.89146H852.163L841.312 14.9928H803.455C801.497 14.9928 800.029 15.2629 799.05 15.8032C798.125 16.3435 797.663 17.316 797.663 18.7207C797.663 20.1254 798.125 21.1249 799.05 21.7192C800.029 22.2595 801.497 22.5297 803.455 22.5297H833.153Z" fill="white"/>
<path d="M878.262 55.1085H861.374V0.89146H878.262V55.1085Z" fill="white"/>
<path d="M926.959 0C940.23 0 950.184 2.24216 956.82 6.72648C963.51 11.2108 966.855 18.2885 966.855 27.9595C966.855 37.6845 963.537 44.7892 956.901 49.2735C950.266 53.7578 940.285 56 926.959 56C913.579 56 903.571 53.7578 896.935 49.2735C890.353 44.7892 887.063 37.6845 887.063 27.9595C887.063 18.2885 890.381 11.2108 897.016 6.72648C903.652 2.24216 913.633 0 926.959 0ZM926.959 41.8987C931.201 41.8987 934.791 41.7366 937.728 41.4124C940.666 41.0343 943.032 40.3319 944.827 39.3054C946.676 38.2788 948.008 36.8741 948.824 35.0912C949.64 33.2542 950.048 30.877 950.048 27.9595C950.048 25.042 949.64 22.6917 948.824 20.9088C948.008 19.0719 946.676 17.6671 944.827 16.6946C943.032 15.6681 940.666 14.9928 937.728 14.6686C934.791 14.2904 931.201 14.1013 926.959 14.1013C922.716 14.1013 919.126 14.2904 916.189 14.6686C913.252 14.9928 910.859 15.6681 909.01 16.6946C907.215 17.6671 905.909 19.0719 905.093 20.9088C904.278 22.6917 903.87 25.042 903.87 27.9595C903.87 30.877 904.278 33.2542 905.093 35.0912C905.909 36.8741 907.215 38.2788 909.01 39.3054C910.859 40.3319 913.252 41.0343 916.189 41.4124C919.126 41.7366 922.716 41.8987 926.959 41.8987Z" fill="white"/>
<path d="M1030.7 56C1029.61 56 1028.52 55.8109 1027.44 55.4327C1026.4 55.1085 1025.23 54.3251 1023.93 53.0825L990.477 23.259V55.1085H975.138V10.1302C975.138 8.34732 975.383 6.80752 975.872 5.51085C976.416 4.21418 977.096 3.16063 977.912 2.35022C978.782 1.5398 979.761 0.945489 980.849 0.567291C981.991 0.189097 983.161 0 984.358 0C985.391 0 986.424 0.189097 987.458 0.567291C988.546 0.891458 989.769 1.67486 991.129 2.91751L1024.58 32.741V0.89146H1040V45.7887C1040 47.5716 1039.73 49.1114 1039.18 50.4081C1038.69 51.7048 1038.01 52.7853 1037.14 53.6498C1036.33 54.4602 1035.35 55.0545 1034.21 55.4327C1033.07 55.8109 1031.9 56 1030.7 56Z" fill="white"/>
</svg>
